<svg xmlns="http://www.w3.org/2000/svg" version="1.1" xmlns:xlink="http://www.w3.org/1999/xlink" width="554"
    height="512"><svg width="554" height="512" viewBox="0 0 554 512" fill="none" xmlns="http://www.w3.org/2000/svg">
        <path class="red"
            d="M133.272 49.6255C128.932 40.1786 127.201 33.2975 127.201 27.262C127.201 11.7503 140.194 9.18451 160.079 4.0237C164.391 3.17814 170.462 2.27426 175.653 0.583149H0C24.226 11.7795 36.339 22.1011 56.2243 69.3941L223.343 463.395C224.487 459.896 225.19 456.222 225.396 452.461L225.484 451.061V265.972L133.272 49.6255Z">
        </path>
        <path class="red"
            d="M427.445 0H186.211V10.0592H366.763C366.763 10.0592 366.909 9.88428 367.027 9.79681H419.878C459.971 9.79681 498.891 37.5253 498.891 104.528C498.891 145.523 487.863 201.534 416.974 201.534H372.57V211.944H426.242C497.718 211.944 553.502 192.904 553.502 106.803C553.502 38.1084 497.161 0 427.445 0Z">
        </path>
        <path class="blue"
            d="M447.361 500.279V512H150.87V500.279L185.538 498.471C203.693 497.538 219.178 486.692 226.599 471.267C229.297 465.698 230.94 459.517 231.291 452.986L231.379 451.441V215.297L256.896 195.79V482.726H260.826V68.8984L286.343 49.3922V482.697H290.273V45.4852L286.343 49.3922V39.6246L311.859 20.1184V66.9449L307.929 63.0378V482.697H311.859V66.9449L337.376 86.451V482.697H341.306V154.795L366.822 174.302V451.47L366.91 453.277C368.318 477.799 388.086 497.305 412.752 498.529L447.302 500.279H447.361Z">
        </path>
    </svg>
    <style>
        @media (prefers-color-scheme: light) {
            :root {
                filter: none;
                --blue: #272062;
                --red: #8A1739;
            }

        }

        @media (prefers-color-scheme: dark) {
            :root {
                filter: none;
                --blue: #F5F6F8;
                --red: #F5F6F8;
            }
        }

        .red {
            fill: var(--red)
        }

        .blue {
            fill: var(--blue)
        }
    </style>
</svg>